<?xml version="1.0" encoding="UTF-8"?>
<svg xmlns="http://www.w3.org/2000/svg" xmlns:xlink="http://www.w3.org/1999/xlink" width="605.000mm" height="148.000mm" viewBox="-604.999695 -0.000229 605.000000 148.000244">
    <circle transform="matrix(1,0,0,-1,-268.25,18.4)" style="stroke:#0000ff;stroke-width:0.05mm;fill:none" r="1.6" cx="0" cy="0"/>
    <circle transform="matrix(1,0,0,-1,-294.25,18.4)" style="stroke:#0000ff;stroke-width:0.05mm;fill:none" r="1.6" cx="0" cy="0"/>
    <path transform="matrix(0,-1,-1,-0,-319.910858,372.434509)" style="stroke:#000000;stroke-width:0.05mm;fill:none" d="M246.934509,126.489182C236.496323,126.489182,228.034515,118.027359,228.034515,107.58918L228.034515,102.58918L224.434509,102.58918L224.434509,97.58918L228.034515,97.58918L228.034515,92.58918L224.434509,92.58918L224.434509,87.58918L228.034515,87.58918L228.034515,82.58918L224.434509,82.58918L224.434509,77.58918L228.034515,77.58918L228.034515,72.58918L224.434509,72.58918L224.434509,67.58918L228.034515,67.58918L228.034515,62.589176L224.434509,62.589176L224.434509,57.589176L228.034515,57.589176L228.034515,52.589176L224.434509,52.589176L224.434509,47.589176L228.034515,47.589176L228.034515,42.589176L224.434509,42.589176L224.434509,37.589176L228.034515,37.589176L228.034515,32.589176L224.434509,32.589176L224.434509,27.589178L228.034515,27.589178L228.034515,22.589178L224.434509,22.589178L224.434509,17.589178L228.034515,17.589178L228.034515,12.589178L224.434509,12.589178L224.434509,7.589178L228.034515,7.589178L228.034515,2.589178L224.434509,2.589178L224.434509,-2.410822L228.034515,-2.410822L228.034515,-7.410822L224.434509,-7.410822L224.434509,-12.410822L228.034515,-12.410822L228.034515,-17.410822L224.434509,-17.410822L224.434509,-22.410822L228.034515,-22.410822L228.034515,-27.410822L224.434509,-27.410822L224.434509,-32.410824L228.034515,-32.410824L228.034515,-37.410824L224.434509,-37.410824L224.434509,-42.410824L228.034515,-42.410824L228.034515,-47.410824L224.434509,-47.410824L224.434509,-52.410824L228.034515,-52.410824L228.034515,-57.410824L224.434509,-57.410824L224.434509,-62.410824L228.034515,-62.410824L228.034515,-67.41082C228.034515,-77.849007,236.496338,-86.310822,246.934509,-86.310822L251.934509,-86.310822L251.934509,-89.91082L256.934509,-89.91082L256.934509,-86.310822L261.934509,-86.310822L261.934509,-89.91082L266.934509,-89.91082L266.934509,-86.310822L271.934509,-86.310822L271.934509,-89.91082L276.934509,-89.91082L276.934509,-86.310822L281.934509,-86.310822L281.934509,-89.91082L286.934509,-89.91082L286.934509,-86.310822L291.934509,-86.310822L291.934509,-89.91082L296.934509,-89.91082L296.934509,-86.310822L301.934509,-86.310822L301.934509,-89.91082L306.934509,-89.91082L306.934509,-86.310822L311.934509,-86.310822C322.372711,-86.310822,330.834503,-77.848999,330.834503,-67.41082L330.834503,-62.410824L334.434509,-62.410824L334.434509,-57.410824L330.834503,-57.410824L330.834503,-52.410824L334.434509,-52.410824L334.434509,-47.410824L330.834503,-47.410824L330.834503,-42.410824L334.434509,-42.410824L334.434509,-37.410824L330.834503,-37.410824L330.834503,-32.410824L334.434509,-32.410824L334.434509,-27.410822L330.834503,-27.410822L330.834503,-22.410822L334.434509,-22.410822L334.434509,-17.410822L330.834503,-17.410822L330.834503,-12.410822L334.434509,-12.410822L334.434509,-7.410822L330.834503,-7.410822L330.834503,-2.410822L334.434509,-2.410822L334.434509,2.589178L330.834503,2.589178L330.834503,7.589178L334.434509,7.589178L334.434509,12.589178L330.834503,12.589178L330.834503,17.589178L334.434509,17.589178L334.434509,22.589178L330.834503,22.589178L330.834503,27.589178L334.434509,27.589178L334.434509,32.589176L330.834503,32.589176L330.834503,37.589176L334.434509,37.589176L334.434509,42.589176L330.834503,42.589176L330.834503,47.589176L334.434509,47.589176L334.434509,52.589176L330.834503,52.589176L330.834503,57.589176L334.434509,57.589176L334.434509,62.589176L330.834503,62.589176L330.834503,67.58918L334.434509,67.58918L334.434509,72.58918L330.834503,72.58918L330.834503,77.58918L334.434509,77.58918L334.434509,82.58918L330.834503,82.58918L330.834503,87.58918L334.434509,87.58918L334.434509,92.58918L330.834503,92.58918L330.834503,97.58918L334.434509,97.58918L334.434509,102.58918L330.834503,102.58918L330.834503,107.58918C330.834503,118.027359,322.372681,126.489182,311.934509,126.489182L306.934509,126.489182L306.934509,130.089172L301.934509,130.089172L301.934509,126.489182L296.934509,126.489182L296.934509,130.089172L291.934509,130.089172L291.934509,126.489182L286.934509,126.489182L286.934509,130.089172L281.934509,130.089172L281.934509,126.489182L276.934509,126.489182L276.934509,130.089172L271.934509,130.089172L271.934509,126.489182L266.934509,126.489182L266.934509,130.089172L261.934509,130.089172L261.934509,126.489182L256.934509,126.489182L256.934509,130.089172L251.934509,130.089172L251.934509,126.489182L246.934509,126.489182z"/>
    <path transform="matrix(1,0,0,-1,-635.241028,196.487)" style="stroke:#0000ff;stroke-width:0.05mm;fill:none" d="M331.141357,172.337219L311.84137,172.337219L311.84137,183.837219L331.141357,183.837219L331.141357,172.337219z"/>
    <path transform="matrix(1,0,0,-1,-635.241028,196.487)" style="stroke:#000000;stroke-width:0.05mm;fill:none" d="M570.241333,196.487228L570.241333,192.887222L565.241333,192.887222L565.241333,196.487228L560.241333,196.487228L560.241333,192.887222L555.241333,192.887222L555.241333,196.487228L550.241333,196.487228L550.241333,192.887222L545.241333,192.887222L545.241333,196.487228L540.241333,196.487228L540.241333,192.887222L535.241333,192.887222L535.241333,196.487228L530.241333,196.487228L530.241333,192.887222L525.241333,192.887222L525.241333,196.487228L520.241333,196.487228L520.241333,192.887222L515.241333,192.887222L515.241333,196.487228L510.241364,196.487228L510.241364,192.887222L505.241364,192.887222L505.241364,196.487228L500.241364,196.487228L500.241364,192.887222L495.241364,192.887222L495.241364,196.487228L490.241364,196.487228L490.241364,192.887222L485.241364,192.887222L485.241364,196.487228L480.241364,196.487228L480.241364,192.887222L475.241364,192.887222L475.241364,196.487228L470.241364,196.487228L470.241364,192.887222L465.241364,192.887222L465.241364,196.487228L460.241364,196.487228L460.241364,192.887222L455.241364,192.887222L455.241364,196.487228L450.241364,196.487228L450.241364,192.887222L445.241364,192.887222L445.241364,196.487228L440.241364,196.487228L440.241364,192.887222L435.241364,192.887222L435.241364,196.487228L430.241364,196.487228L430.241364,192.887222L425.241364,192.887222L425.241364,196.487228L420.241364,196.487228L420.241364,192.887222L415.241364,192.887222L415.241364,196.487228L410.241364,196.487228L410.241364,192.887222L405.241364,192.887222L405.241364,196.487228L365.241364,196.487228L365.241364,192.887222L360.241364,192.887222L360.241364,196.487228L355.241364,196.487228L355.241364,192.887222L350.241364,192.887222L350.241364,196.487228L345.241364,196.487228L345.241364,192.887222L340.241364,192.887222L340.241364,196.487228L335.241364,196.487228L335.241364,192.887222L330.241364,192.887222L330.241364,196.487228L325.241364,196.487228L325.241364,192.887222L320.241364,192.887222L320.241364,196.487228L315.241364,196.487228L315.241364,192.887222L310.241364,192.887222L310.241364,196.487228L270.241364,196.487228L270.241364,192.887222L265.241364,192.887222L265.241364,196.487228L260.241364,196.487228L260.241364,192.887222L255.241364,192.887222L255.241364,196.487228L250.241364,196.487228L250.241364,192.887222L245.241364,192.887222L245.241364,196.487228L240.241364,196.487228L240.241364,192.887222L235.241364,192.887222L235.241364,196.487228L230.241364,196.487228L230.241364,192.887222L225.241364,192.887222L225.241364,196.487228L220.241364,196.487228L220.241364,192.887222L215.241364,192.887222L215.241364,196.487228L210.241364,196.487228L210.241364,192.887222L205.241364,192.887222L205.241364,196.487228L200.241364,196.487228L200.241364,192.887222L195.241364,192.887222L195.241364,196.487228L190.241364,196.487228L190.241364,192.887222L185.241364,192.887222L185.241364,196.487228L180.241364,196.487228L180.241364,192.887222L175.241364,192.887222L175.241364,196.487228L170.241364,196.487228L170.241364,192.887222L165.241364,192.887222L165.241364,196.487228L160.241364,196.487228L160.241364,192.887222L155.241364,192.887222L155.241364,196.487228L150.241364,196.487228L150.241364,192.887222L145.241364,192.887222L145.241364,196.487228L140.241364,196.487228L140.241364,192.887222L135.241364,192.887222L135.241364,196.487228L130.241364,196.487228L130.241364,192.887222L125.241364,192.887222L125.241364,196.487228L120.241364,196.487228L120.241364,192.887222L115.241364,192.887222L115.241364,196.487228L110.241364,196.487228L110.241364,192.887222L105.241364,192.887222L105.241364,196.487228L65.241356,196.487228L65.241356,192.887222L60.24136,192.887222L60.24136,196.487228L55.24136,196.487228L55.24136,192.887222L50.24136,192.887222L50.24136,196.487228L45.24136,196.487228L45.24136,192.887222L40.24136,192.887222L40.24136,196.487228L35.24136,196.487228L35.24136,186.487228L30.241358,186.487228L30.241358,174.487228L35.24136,174.487228L35.24136,164.487228L40.24136,164.487228L40.24136,168.087219L45.24136,168.087219L45.24136,164.487228L50.24136,164.487228L50.24136,168.087219L55.24136,168.087219L55.24136,164.487228L60.24136,164.487228L60.24136,168.087219L65.241356,168.087219L65.241356,164.487228L105.241364,164.487228L105.241364,168.087219L110.241364,168.087219L110.241364,164.487228L115.241364,164.487228L115.241364,168.087219L120.241364,168.087219L120.241364,164.487228L125.241364,164.487228L125.241364,168.087219L130.241364,168.087219L130.241364,164.487228L135.241364,164.487228L135.241364,168.087219L140.241364,168.087219L140.241364,164.487228L145.241364,164.487228L145.241364,168.087219L150.241364,168.087219L150.241364,164.487228L155.241364,164.487228L155.241364,168.087219L160.241364,168.087219L160.241364,164.487228L165.241364,164.487228L165.241364,168.087219L170.241364,168.087219L170.241364,164.487228L175.241364,164.487228L175.241364,168.087219L180.241364,168.087219L180.241364,164.487228L185.241364,164.487228L185.241364,168.087219L190.241364,168.087219L190.241364,164.487228L195.241364,164.487228L195.241364,168.087219L200.241364,168.087219L200.241364,164.487228L205.241364,164.487228L205.241364,168.087219L210.241364,168.087219L210.241364,164.487228L215.241364,164.487228L215.241364,168.087219L220.241364,168.087219L220.241364,164.487228L225.241364,164.487228L225.241364,168.087219L230.241364,168.087219L230.241364,164.487228L235.241364,164.487228L235.241364,168.087219L240.241364,168.087219L240.241364,164.487228L245.241364,164.487228L245.241364,168.087219L250.241364,168.087219L250.241364,164.487228L255.241364,164.487228L255.241364,168.087219L260.241364,168.087219L260.241364,164.487228L265.241364,164.487228L265.241364,168.087219L270.241364,168.087219L270.241364,164.487228L310.241364,164.487228L310.241364,168.087219L315.241364,168.087219L315.241364,164.487228L320.241364,164.487228L320.241364,168.087219L325.241364,168.087219L325.241364,164.487228L330.241364,164.487228L330.241364,168.087219L335.241364,168.087219L335.241364,164.487228L340.241364,164.487228L340.241364,168.087219L345.241364,168.087219L345.241364,164.487228L350.241364,164.487228L350.241364,168.087219L355.241364,168.087219L355.241364,164.487228L360.241364,164.487228L360.241364,168.087219L365.241364,168.087219L365.241364,164.487228L405.241364,164.487228L405.241364,168.087219L410.241364,168.087219L410.241364,164.487228L415.241364,164.487228L415.241364,168.087219L420.241364,168.087219L420.241364,164.487228L425.241364,164.487228L425.241364,168.087219L430.241364,168.087219L430.241364,164.487228L435.241364,164.487228L435.241364,168.087219L440.241364,168.087219L440.241364,164.487228L445.241364,164.487228L445.241364,168.087219L450.241364,168.087219L450.241364,164.487228L455.241364,164.487228L455.241364,168.087219L460.241364,168.087219L460.241364,164.487228L465.241364,164.487228L465.241364,168.087219L470.241364,168.087219L470.241364,164.487228L475.241364,164.487228L475.241364,168.087219L480.241364,168.087219L480.241364,164.487228L485.241364,164.487228L485.241364,168.087219L490.241364,168.087219L490.241364,164.487228L495.241364,164.487228L495.241364,168.087219L500.241364,168.087219L500.241364,164.487228L505.241364,164.487228L505.241364,168.087219L510.241364,168.087219L510.241364,164.487228L515.241333,164.487228L515.241333,168.087219L520.241333,168.087219L520.241333,164.487228L525.241333,164.487228L525.241333,168.087219L530.241333,168.087219L530.241333,164.487228L535.241333,164.487228L535.241333,168.087219L540.241333,168.087219L540.241333,164.487228L545.241333,164.487228L545.241333,168.087219L550.241333,168.087219L550.241333,164.487228L555.241333,164.487228L555.241333,168.087219L560.241333,168.087219L560.241333,164.487228L565.241333,164.487228L565.241333,168.087219L570.241333,168.087219L570.241333,164.487228L610.241333,164.487228L610.241333,168.087219L615.241333,168.087219L615.241333,164.487228L620.241333,164.487228L620.241333,168.087219L625.241333,168.087219L625.241333,164.487228L630.241333,164.487228L630.241333,168.087219L635.241333,168.087219L635.241333,174.487228L630.241333,174.487228L630.241333,186.487228L635.241333,186.487228L635.241333,192.887222L630.241333,192.887222L630.241333,196.487228L625.241333,196.487228L625.241333,192.887222L620.241333,192.887222L620.241333,196.487228L615.241333,196.487228L615.241333,192.887222L610.241333,192.887222L610.241333,196.487228L570.241333,196.487228z"/>
    <path transform="matrix(1,0,0,-1,-635.241028,196.487)" style="stroke:#0000ff;stroke-width:0.05mm;fill:none" d="M359.991364,181.587219L359.991364,174.587219L347.991364,174.587219L347.991364,181.587219L359.991364,181.587219z"/>
    <path transform="matrix(0,0,0,0,-38.986801,0)" style="stroke:#0000ff;stroke-width:0.05mm;fill:none" d="M59.986767,0L60,35"/>
    <path transform="matrix(-1,0,0,1,3,0)" style="stroke:#0000ff;stroke-width:0.05mm;fill:none" d="M59.986771,0L60,12"/>
    <path transform="matrix(-1,0,0,1,21,0)" style="stroke:#0000ff;stroke-width:0.05mm;fill:none" d="M59.986771,0L60,12"/>
    <path transform="matrix(-1,0,0,1,30,0)" style="stroke:#0000ff;stroke-width:0.05mm;fill:none" d="M59.986771,0L60,12"/>
    <path transform="matrix(-1,0,0,1,9,0)" style="stroke:#0000ff;stroke-width:0.05mm;fill:none" d="M59.986771,0L60,12"/>
    <path transform="matrix(0,0,0,0,-53.986801,0)" style="stroke:#0000ff;stroke-width:0.05mm;fill:none" d="M59.986767,0L60,35"/>
    <path transform="matrix(0,0,0,0,-35.986801,0)" style="stroke:#0000ff;stroke-width:0.05mm;fill:none" d="M59.986767,0L60,35"/>
    <path transform="matrix(-1,0,0,1,26.5,0)" style="stroke:#0000ff;stroke-width:0.05mm;fill:none" d="M58,5L58,27"/>
    <path transform="matrix(-1,0,0,1,15,0)" style="stroke:#0000ff;stroke-width:0.05mm;fill:none" d="M59.961185,32L60,20"/>
    <path transform="matrix(0,0,0,0,-56.986801,0)" style="stroke:#0000ff;stroke-width:0.05mm;fill:none" d="M59.986767,0L60,35"/>
    <path transform="matrix(-1,0,0,1,0,0)" style="stroke:#0000ff;stroke-width:0.05mm;fill:none" d="M59.986771,0L60,12"/>
    <path transform="matrix(-1,0,0,1,12,0)" style="stroke:#0000ff;stroke-width:0.05mm;fill:none" d="M59.961185,32L60,20"/>
    <path transform="matrix(-1,0,0,1,11.5,0)" style="stroke:#0000ff;stroke-width:0.05mm;fill:none" d="M58,5L58,27"/>
    <path transform="matrix(-1,0,0,1,24,0)" style="stroke:#0000ff;stroke-width:0.05mm;fill:none" d="M59.986771,0L60,12"/>
    <path transform="matrix(-1,0,0,1,18,0)" style="stroke:#0000ff;stroke-width:0.05mm;fill:none" d="M59.961185,32L60,20"/>
    <path transform="matrix(-1,0,0,1,6,0)" style="stroke:#0000ff;stroke-width:0.05mm;fill:none" d="M59.961185,32L60,20"/>
    <path transform="matrix(-1,0,0,1,9,0)" style="stroke:#0000ff;stroke-width:0.05mm;fill:none" d="M59.961185,32L60,20"/>
    <path transform="matrix(-1,0,0,1,15,0)" style="stroke:#0000ff;stroke-width:0.05mm;fill:none" d="M59.986771,0L60,12"/>
    <path transform="matrix(-1,0,0,1,0,0)" style="stroke:#0000ff;stroke-width:0.05mm;fill:none" d="M59.961185,32L60,20"/>
    <path transform="matrix(-1,0,0,1,-0.5,0)" style="stroke:#0000ff;stroke-width:0.05mm;fill:none" d="M58,5L58,27"/>
    <path transform="matrix(-1,0,0,1,27,0)" style="stroke:#0000ff;stroke-width:0.05mm;fill:none" d="M59.961185,32L60,20"/>
    <path transform="matrix(0,0,0,0,-50.986801,0)" style="stroke:#0000ff;stroke-width:0.05mm;fill:none" d="M59.986767,0L60,35"/>
    <path transform="matrix(-1,0,0,1,5.5,0)" style="stroke:#0000ff;stroke-width:0.05mm;fill:none" d="M58,5L58,27"/>
    <path transform="matrix(-1,0,0,1,2.5,0)" style="stroke:#0000ff;stroke-width:0.05mm;fill:none" d="M58,5L58,27"/>
    <path transform="matrix(0,0,0,0,-32.986801,0)" style="stroke:#0000ff;stroke-width:0.05mm;fill:none" d="M59.986767,0L60,35"/>
    <path transform="matrix(0,0,0,0,-44.986801,0)" style="stroke:#0000ff;stroke-width:0.05mm;fill:none" d="M59.986767,0L60,35"/>
    <path transform="matrix(-1,0,0,1,20.5,0)" style="stroke:#0000ff;stroke-width:0.05mm;fill:none" d="M58,5L58,27"/>
    <path transform="matrix(-1,0,0,1,21,0)" style="stroke:#0000ff;stroke-width:0.05mm;fill:none" d="M59.961185,32L60,20"/>
    <path transform="matrix(-1,0,0,1,12,0)" style="stroke:#0000ff;stroke-width:0.05mm;fill:none" d="M59.986771,0L60,12"/>
    <path transform="matrix(-1,0,0,1,23.5,0)" style="stroke:#0000ff;stroke-width:0.05mm;fill:none" d="M58,5L58,27"/>
    <path transform="matrix(-1,0,0,1,27,0)" style="stroke:#0000ff;stroke-width:0.05mm;fill:none" d="M59.986771,0L60,12"/>
    <path transform="matrix(-1,0,0,1,17.5,0)" style="stroke:#0000ff;stroke-width:0.05mm;fill:none" d="M58,5L58,27"/>
    <path transform="matrix(-1,0,0,1,3,0)" style="stroke:#0000ff;stroke-width:0.05mm;fill:none" d="M59.961185,32L60,20"/>
    <path transform="matrix(-1,0,0,1,18,0)" style="stroke:#0000ff;stroke-width:0.05mm;fill:none" d="M59.986771,0L60,12"/>
    <path transform="matrix(0,0,0,0,-41.986801,0)" style="stroke:#0000ff;stroke-width:0.05mm;fill:none" d="M59.986767,0L60,35"/>
    <path transform="matrix(0,0,0,0,-47.986801,0)" style="stroke:#0000ff;stroke-width:0.05mm;fill:none" d="M59.986767,0L60,35"/>
    <path transform="matrix(-1,0,0,1,6,0)" style="stroke:#0000ff;stroke-width:0.05mm;fill:none" d="M59.986771,0L60,12"/>
    <path transform="matrix(-1,0,0,1,24,0)" style="stroke:#0000ff;stroke-width:0.05mm;fill:none" d="M59.961185,32L60,20"/>
    <path transform="matrix(0,0,0,0,-29.986799,0)" style="stroke:#0000ff;stroke-width:0.05mm;fill:none" d="M59.986767,0L60,35"/>
    <path transform="matrix(-1,0,0,1,8.5,0)" style="stroke:#0000ff;stroke-width:0.05mm;fill:none" d="M58,5L58,27"/>
    <path transform="matrix(-1,0,0,1,30,0)" style="stroke:#0000ff;stroke-width:0.05mm;fill:none" d="M59.961185,32L60,20"/>
    <path transform="matrix(0,0,0,0,-59.986801,0)" style="stroke:#0000ff;stroke-width:0.05mm;fill:none" d="M59.986767,0L60,35"/>
    <path transform="matrix(-1,0,0,1,14.5,0)" style="stroke:#0000ff;stroke-width:0.05mm;fill:none" d="M58,5L58,27"/>
    <path transform="matrix(0,0,0,0,-244.005798,0)" style="stroke:#0000ff;stroke-width:0.05mm;fill:none" d="M59.986767,0L60,35"/>
    <path transform="matrix(-1,0,0,1,-202.018997,0)" style="stroke:#0000ff;stroke-width:0.05mm;fill:none" d="M59.986771,0L60,12"/>
    <path transform="matrix(-1,0,0,1,-184.018997,0)" style="stroke:#0000ff;stroke-width:0.05mm;fill:none" d="M59.986771,0L60,12"/>
    <path transform="matrix(-1,0,0,1,-175.018997,0)" style="stroke:#0000ff;stroke-width:0.05mm;fill:none" d="M59.986771,0L60,12"/>
    <path transform="matrix(-1,0,0,1,-196.018997,0)" style="stroke:#0000ff;stroke-width:0.05mm;fill:none" d="M59.986771,0L60,12"/>
    <path transform="matrix(0,0,0,0,-259.005798,0)" style="stroke:#0000ff;stroke-width:0.05mm;fill:none" d="M59.986767,0L60,35"/>
    <path transform="matrix(0,0,0,0,-241.005798,0)" style="stroke:#0000ff;stroke-width:0.05mm;fill:none" d="M59.986767,0L60,35"/>
    <path transform="matrix(-1,0,0,1,-178.518997,0)" style="stroke:#0000ff;stroke-width:0.05mm;fill:none" d="M58,5L58,27"/>
    <path transform="matrix(-1,0,0,1,-190.018997,0)" style="stroke:#0000ff;stroke-width:0.05mm;fill:none" d="M59.961185,32L60,20"/>
    <path transform="matrix(0,0,0,0,-262.005798,0)" style="stroke:#0000ff;stroke-width:0.05mm;fill:none" d="M59.986767,0L60,35"/>
    <path transform="matrix(-1,0,0,1,-205.018997,0)" style="stroke:#0000ff;stroke-width:0.05mm;fill:none" d="M59.986771,0L60,12"/>
    <path transform="matrix(-1,0,0,1,-193.018997,0)" style="stroke:#0000ff;stroke-width:0.05mm;fill:none" d="M59.961185,32L60,20"/>
    <path transform="matrix(-1,0,0,1,-193.518997,0)" style="stroke:#0000ff;stroke-width:0.05mm;fill:none" d="M58,5L58,27"/>
    <path transform="matrix(-1,0,0,1,-181.018997,0)" style="stroke:#0000ff;stroke-width:0.05mm;fill:none" d="M59.986771,0L60,12"/>
    <path transform="matrix(-1,0,0,1,-187.018997,0)" style="stroke:#0000ff;stroke-width:0.05mm;fill:none" d="M59.961185,32L60,20"/>
    <path transform="matrix(-1,0,0,1,-199.018997,0)" style="stroke:#0000ff;stroke-width:0.05mm;fill:none" d="M59.961185,32L60,20"/>
    <path transform="matrix(-1,0,0,1,-196.018997,0)" style="stroke:#0000ff;stroke-width:0.05mm;fill:none" d="M59.961185,32L60,20"/>
    <path transform="matrix(-1,0,0,1,-190.018997,0)" style="stroke:#0000ff;stroke-width:0.05mm;fill:none" d="M59.986771,0L60,12"/>
    <path transform="matrix(-1,0,0,1,-205.018997,0)" style="stroke:#0000ff;stroke-width:0.05mm;fill:none" d="M59.961185,32L60,20"/>
    <path transform="matrix(-1,0,0,1,-205.518997,0)" style="stroke:#0000ff;stroke-width:0.05mm;fill:none" d="M58,5L58,27"/>
    <path transform="matrix(-1,0,0,1,-178.018997,0)" style="stroke:#0000ff;stroke-width:0.05mm;fill:none" d="M59.961185,32L60,20"/>
    <path transform="matrix(0,0,0,0,-256.005798,0)" style="stroke:#0000ff;stroke-width:0.05mm;fill:none" d="M59.986767,0L60,35"/>
    <path transform="matrix(-1,0,0,1,-199.518997,0)" style="stroke:#0000ff;stroke-width:0.05mm;fill:none" d="M58,5L58,27"/>
    <path transform="matrix(-1,0,0,1,-202.518997,0)" style="stroke:#0000ff;stroke-width:0.05mm;fill:none" d="M58,5L58,27"/>
    <path transform="matrix(0,0,0,0,-238.005798,0)" style="stroke:#0000ff;stroke-width:0.05mm;fill:none" d="M59.986767,0L60,35"/>
    <path transform="matrix(0,0,0,0,-250.005798,0)" style="stroke:#0000ff;stroke-width:0.05mm;fill:none" d="M59.986767,0L60,35"/>
    <path transform="matrix(-1,0,0,1,-184.518997,0)" style="stroke:#0000ff;stroke-width:0.05mm;fill:none" d="M58,5L58,27"/>
    <path transform="matrix(-1,0,0,1,-184.018997,0)" style="stroke:#0000ff;stroke-width:0.05mm;fill:none" d="M59.961185,32L60,20"/>
    <path transform="matrix(-1,0,0,1,-193.018997,0)" style="stroke:#0000ff;stroke-width:0.05mm;fill:none" d="M59.986771,0L60,12"/>
    <path transform="matrix(-1,0,0,1,-181.518997,0)" style="stroke:#0000ff;stroke-width:0.05mm;fill:none" d="M58,5L58,27"/>
    <path transform="matrix(-1,0,0,1,-178.018997,0)" style="stroke:#0000ff;stroke-width:0.05mm;fill:none" d="M59.986771,0L60,12"/>
    <path transform="matrix(-1,0,0,1,-187.518997,0)" style="stroke:#0000ff;stroke-width:0.05mm;fill:none" d="M58,5L58,27"/>
    <path transform="matrix(-1,0,0,1,-202.018997,0)" style="stroke:#0000ff;stroke-width:0.05mm;fill:none" d="M59.961185,32L60,20"/>
    <path transform="matrix(-1,0,0,1,-187.018997,0)" style="stroke:#0000ff;stroke-width:0.05mm;fill:none" d="M59.986771,0L60,12"/>
    <path transform="matrix(0,0,0,0,-247.005798,0)" style="stroke:#0000ff;stroke-width:0.05mm;fill:none" d="M59.986767,0L60,35"/>
    <path transform="matrix(0,0,0,0,-253.005798,0)" style="stroke:#0000ff;stroke-width:0.05mm;fill:none" d="M59.986767,0L60,35"/>
    <path transform="matrix(-1,0,0,1,-199.018997,0)" style="stroke:#0000ff;stroke-width:0.05mm;fill:none" d="M59.986771,0L60,12"/>
    <path transform="matrix(-1,0,0,1,-181.018997,0)" style="stroke:#0000ff;stroke-width:0.05mm;fill:none" d="M59.961185,32L60,20"/>
    <path transform="matrix(0,0,0,0,-235.005798,0)" style="stroke:#0000ff;stroke-width:0.05mm;fill:none" d="M59.986767,0L60,35"/>
    <path transform="matrix(-1,0,0,1,-196.518997,0)" style="stroke:#0000ff;stroke-width:0.05mm;fill:none" d="M58,5L58,27"/>
    <path transform="matrix(-1,0,0,1,-175.018997,0)" style="stroke:#0000ff;stroke-width:0.05mm;fill:none" d="M59.961185,32L60,20"/>
    <path transform="matrix(0,0,0,0,-265.005798,0)" style="stroke:#0000ff;stroke-width:0.05mm;fill:none" d="M59.986767,0L60,35"/>
    <path transform="matrix(-1,0,0,1,-190.518997,0)" style="stroke:#0000ff;stroke-width:0.05mm;fill:none" d="M58,5L58,27"/>
    <path transform="matrix(0,0,0,0,-339.005798,0)" style="stroke:#0000ff;stroke-width:0.05mm;fill:none" d="M59.986767,0L60,35"/>
    <path transform="matrix(-1,0,0,1,-297.019012,0)" style="stroke:#0000ff;stroke-width:0.05mm;fill:none" d="M59.986771,0L60,12"/>
    <path transform="matrix(-1,0,0,1,-279.019012,0)" style="stroke:#0000ff;stroke-width:0.05mm;fill:none" d="M59.986771,0L60,12"/>
    <path transform="matrix(-1,0,0,1,-270.019012,0)" style="stroke:#0000ff;stroke-width:0.05mm;fill:none" d="M59.986771,0L60,12"/>
    <path transform="matrix(-1,0,0,1,-291.019012,0)" style="stroke:#0000ff;stroke-width:0.05mm;fill:none" d="M59.986771,0L60,12"/>
    <path transform="matrix(0,0,0,0,-354.005798,0)" style="stroke:#0000ff;stroke-width:0.05mm;fill:none" d="M59.986767,0L60,35"/>
    <path transform="matrix(0,0,0,0,-336.005798,0)" style="stroke:#0000ff;stroke-width:0.05mm;fill:none" d="M59.986767,0L60,35"/>
    <path transform="matrix(-1,0,0,1,-273.519012,0)" style="stroke:#0000ff;stroke-width:0.05mm;fill:none" d="M58,5L58,27"/>
    <path transform="matrix(-1,0,0,1,-285.019012,0)" style="stroke:#0000ff;stroke-width:0.05mm;fill:none" d="M59.961185,32L60,20"/>
    <path transform="matrix(0,0,0,0,-357.005798,0)" style="stroke:#0000ff;stroke-width:0.05mm;fill:none" d="M59.986767,0L60,35"/>
    <path transform="matrix(-1,0,0,1,-300.019012,0)" style="stroke:#0000ff;stroke-width:0.05mm;fill:none" d="M59.986771,0L60,12"/>
    <path transform="matrix(-1,0,0,1,-288.019012,0)" style="stroke:#0000ff;stroke-width:0.05mm;fill:none" d="M59.961185,32L60,20"/>
    <path transform="matrix(-1,0,0,1,-288.519012,0)" style="stroke:#0000ff;stroke-width:0.05mm;fill:none" d="M58,5L58,27"/>
    <path transform="matrix(-1,0,0,1,-276.019012,0)" style="stroke:#0000ff;stroke-width:0.05mm;fill:none" d="M59.986771,0L60,12"/>
    <path transform="matrix(-1,0,0,1,-282.019012,0)" style="stroke:#0000ff;stroke-width:0.05mm;fill:none" d="M59.961185,32L60,20"/>
    <path transform="matrix(-1,0,0,1,-294.019012,0)" style="stroke:#0000ff;stroke-width:0.05mm;fill:none" d="M59.961185,32L60,20"/>
    <path transform="matrix(-1,0,0,1,-291.019012,0)" style="stroke:#0000ff;stroke-width:0.05mm;fill:none" d="M59.961185,32L60,20"/>
    <path transform="matrix(-1,0,0,1,-285.019012,0)" style="stroke:#0000ff;stroke-width:0.05mm;fill:none" d="M59.986771,0L60,12"/>
    <path transform="matrix(-1,0,0,1,-300.019012,0)" style="stroke:#0000ff;stroke-width:0.05mm;fill:none" d="M59.961185,32L60,20"/>
    <path transform="matrix(-1,0,0,1,-300.519012,0)" style="stroke:#0000ff;stroke-width:0.05mm;fill:none" d="M58,5L58,27"/>
    <path transform="matrix(-1,0,0,1,-273.019012,0)" style="stroke:#0000ff;stroke-width:0.05mm;fill:none" d="M59.961185,32L60,20"/>
    <path transform="matrix(0,0,0,0,-351.005798,0)" style="stroke:#0000ff;stroke-width:0.05mm;fill:none" d="M59.986767,0L60,35"/>
    <path transform="matrix(-1,0,0,1,-294.519012,0)" style="stroke:#0000ff;stroke-width:0.05mm;fill:none" d="M58,5L58,27"/>
    <path transform="matrix(-1,0,0,1,-297.519012,0)" style="stroke:#0000ff;stroke-width:0.05mm;fill:none" d="M58,5L58,27"/>
    <path transform="matrix(0,0,0,0,-333.005798,0)" style="stroke:#0000ff;stroke-width:0.05mm;fill:none" d="M59.986767,0L60,35"/>
    <path transform="matrix(0,0,0,0,-345.005798,0)" style="stroke:#0000ff;stroke-width:0.05mm;fill:none" d="M59.986767,0L60,35"/>
    <path transform="matrix(-1,0,0,1,-279.519012,0)" style="stroke:#0000ff;stroke-width:0.05mm;fill:none" d="M58,5L58,27"/>
    <path transform="matrix(-1,0,0,1,-279.019012,0)" style="stroke:#0000ff;stroke-width:0.05mm;fill:none" d="M59.961185,32L60,20"/>
    <path transform="matrix(-1,0,0,1,-288.019012,0)" style="stroke:#0000ff;stroke-width:0.05mm;fill:none" d="M59.986771,0L60,12"/>
    <path transform="matrix(-1,0,0,1,-276.519012,0)" style="stroke:#0000ff;stroke-width:0.05mm;fill:none" d="M58,5L58,27"/>
    <path transform="matrix(-1,0,0,1,-273.019012,0)" style="stroke:#0000ff;stroke-width:0.05mm;fill:none" d="M59.986771,0L60,12"/>
    <path transform="matrix(-1,0,0,1,-282.519012,0)" style="stroke:#0000ff;stroke-width:0.05mm;fill:none" d="M58,5L58,27"/>
    <path transform="matrix(-1,0,0,1,-297.019012,0)" style="stroke:#0000ff;stroke-width:0.05mm;fill:none" d="M59.961185,32L60,20"/>
    <path transform="matrix(-1,0,0,1,-282.019012,0)" style="stroke:#0000ff;stroke-width:0.05mm;fill:none" d="M59.986771,0L60,12"/>
    <path transform="matrix(0,0,0,0,-342.005798,0)" style="stroke:#0000ff;stroke-width:0.05mm;fill:none" d="M59.986767,0L60,35"/>
    <path transform="matrix(0,0,0,0,-348.005798,0)" style="stroke:#0000ff;stroke-width:0.05mm;fill:none" d="M59.986767,0L60,35"/>
    <path transform="matrix(-1,0,0,1,-294.019012,0)" style="stroke:#0000ff;stroke-width:0.05mm;fill:none" d="M59.986771,0L60,12"/>
    <path transform="matrix(-1,0,0,1,-276.019012,0)" style="stroke:#0000ff;stroke-width:0.05mm;fill:none" d="M59.961185,32L60,20"/>
    <path transform="matrix(0,0,0,0,-330.005798,0)" style="stroke:#0000ff;stroke-width:0.05mm;fill:none" d="M59.986767,0L60,35"/>
    <path transform="matrix(-1,0,0,1,-291.519012,0)" style="stroke:#0000ff;stroke-width:0.05mm;fill:none" d="M58,5L58,27"/>
    <path transform="matrix(-1,0,0,1,-270.019012,0)" style="stroke:#0000ff;stroke-width:0.05mm;fill:none" d="M59.961185,32L60,20"/>
    <path transform="matrix(0,0,0,0,-360.005798,0)" style="stroke:#0000ff;stroke-width:0.05mm;fill:none" d="M59.986767,0L60,35"/>
    <path transform="matrix(-1,0,0,1,-285.519012,0)" style="stroke:#0000ff;stroke-width:0.05mm;fill:none" d="M58,5L58,27"/>
    <path transform="matrix(0,0,0,0,-544.005798,0)" style="stroke:#0000ff;stroke-width:0.05mm;fill:none" d="M59.986767,0L60,35"/>
    <path transform="matrix(-1,0,0,1,-502.019012,0)" style="stroke:#0000ff;stroke-width:0.05mm;fill:none" d="M59.986771,0L60,12"/>
    <path transform="matrix(-1,0,0,1,-484.019012,0)" style="stroke:#0000ff;stroke-width:0.05mm;fill:none" d="M59.986771,0L60,12"/>
    <path transform="matrix(-1,0,0,1,-475.019012,0)" style="stroke:#0000ff;stroke-width:0.05mm;fill:none" d="M59.986771,0L60,12"/>
    <path transform="matrix(-1,0,0,1,-496.019012,0)" style="stroke:#0000ff;stroke-width:0.05mm;fill:none" d="M59.986771,0L60,12"/>
    <path transform="matrix(0,0,0,0,-559.005798,0)" style="stroke:#0000ff;stroke-width:0.05mm;fill:none" d="M59.986767,0L60,35"/>
    <path transform="matrix(0,0,0,0,-541.005798,0)" style="stroke:#0000ff;stroke-width:0.05mm;fill:none" d="M59.986767,0L60,35"/>
    <path transform="matrix(-1,0,0,1,-478.519012,0)" style="stroke:#0000ff;stroke-width:0.05mm;fill:none" d="M58,5L58,27"/>
    <path transform="matrix(-1,0,0,1,-490.019012,0)" style="stroke:#0000ff;stroke-width:0.05mm;fill:none" d="M59.961185,32L60,20"/>
    <path transform="matrix(0,0,0,0,-562.005798,0)" style="stroke:#0000ff;stroke-width:0.05mm;fill:none" d="M59.986767,0L60,35"/>
    <path transform="matrix(-1,0,0,1,-505.019012,0)" style="stroke:#0000ff;stroke-width:0.05mm;fill:none" d="M59.986771,0L60,12"/>
    <path transform="matrix(-1,0,0,1,-493.019012,0)" style="stroke:#0000ff;stroke-width:0.05mm;fill:none" d="M59.961185,32L60,20"/>
    <path transform="matrix(-1,0,0,1,-493.519012,0)" style="stroke:#0000ff;stroke-width:0.05mm;fill:none" d="M58,5L58,27"/>
    <path transform="matrix(-1,0,0,1,-481.019012,0)" style="stroke:#0000ff;stroke-width:0.05mm;fill:none" d="M59.986771,0L60,12"/>
    <path transform="matrix(-1,0,0,1,-487.019012,0)" style="stroke:#0000ff;stroke-width:0.05mm;fill:none" d="M59.961185,32L60,20"/>
    <path transform="matrix(-1,0,0,1,-499.019012,0)" style="stroke:#0000ff;stroke-width:0.05mm;fill:none" d="M59.961185,32L60,20"/>
    <path transform="matrix(-1,0,0,1,-496.019012,0)" style="stroke:#0000ff;stroke-width:0.05mm;fill:none" d="M59.961185,32L60,20"/>
    <path transform="matrix(-1,0,0,1,-490.019012,0)" style="stroke:#0000ff;stroke-width:0.05mm;fill:none" d="M59.986771,0L60,12"/>
    <path transform="matrix(-1,0,0,1,-505.019012,0)" style="stroke:#0000ff;stroke-width:0.05mm;fill:none" d="M59.961185,32L60,20"/>
    <path transform="matrix(-1,0,0,1,-505.519012,0)" style="stroke:#0000ff;stroke-width:0.05mm;fill:none" d="M58,5L58,27"/>
    <path transform="matrix(-1,0,0,1,-478.019012,0)" style="stroke:#0000ff;stroke-width:0.05mm;fill:none" d="M59.961185,32L60,20"/>
    <path transform="matrix(0,0,0,0,-556.005798,0)" style="stroke:#0000ff;stroke-width:0.05mm;fill:none" d="M59.986767,0L60,35"/>
    <path transform="matrix(-1,0,0,1,-499.519012,0)" style="stroke:#0000ff;stroke-width:0.05mm;fill:none" d="M58,5L58,27"/>
    <path transform="matrix(-1,0,0,1,-502.519012,0)" style="stroke:#0000ff;stroke-width:0.05mm;fill:none" d="M58,5L58,27"/>
    <path transform="matrix(0,0,0,0,-538.005798,0)" style="stroke:#0000ff;stroke-width:0.05mm;fill:none" d="M59.986767,0L60,35"/>
    <path transform="matrix(0,0,0,0,-550.005798,0)" style="stroke:#0000ff;stroke-width:0.05mm;fill:none" d="M59.986767,0L60,35"/>
    <path transform="matrix(-1,0,0,1,-484.519012,0)" style="stroke:#0000ff;stroke-width:0.05mm;fill:none" d="M58,5L58,27"/>
    <path transform="matrix(-1,0,0,1,-484.019012,0)" style="stroke:#0000ff;stroke-width:0.05mm;fill:none" d="M59.961185,32L60,20"/>
    <path transform="matrix(-1,0,0,1,-493.019012,0)" style="stroke:#0000ff;stroke-width:0.05mm;fill:none" d="M59.986771,0L60,12"/>
    <path transform="matrix(-1,0,0,1,-481.519012,0)" style="stroke:#0000ff;stroke-width:0.05mm;fill:none" d="M58,5L58,27"/>
    <path transform="matrix(-1,0,0,1,-478.019012,0)" style="stroke:#0000ff;stroke-width:0.05mm;fill:none" d="M59.986771,0L60,12"/>
    <path transform="matrix(-1,0,0,1,-487.519012,0)" style="stroke:#0000ff;stroke-width:0.05mm;fill:none" d="M58,5L58,27"/>
    <path transform="matrix(-1,0,0,1,-502.019012,0)" style="stroke:#0000ff;stroke-width:0.05mm;fill:none" d="M59.961185,32L60,20"/>
    <path transform="matrix(-1,0,0,1,-487.019012,0)" style="stroke:#0000ff;stroke-width:0.05mm;fill:none" d="M59.986771,0L60,12"/>
    <path transform="matrix(0,0,0,0,-547.005798,0)" style="stroke:#0000ff;stroke-width:0.05mm;fill:none" d="M59.986767,0L60,35"/>
    <path transform="matrix(0,0,0,0,-553.005798,0)" style="stroke:#0000ff;stroke-width:0.05mm;fill:none" d="M59.986767,0L60,35"/>
    <path transform="matrix(-1,0,0,1,-499.019012,0)" style="stroke:#0000ff;stroke-width:0.05mm;fill:none" d="M59.986771,0L60,12"/>
    <path transform="matrix(-1,0,0,1,-481.019012,0)" style="stroke:#0000ff;stroke-width:0.05mm;fill:none" d="M59.961185,32L60,20"/>
    <path transform="matrix(0,0,0,0,-535.005798,0)" style="stroke:#0000ff;stroke-width:0.05mm;fill:none" d="M59.986767,0L60,35"/>
    <path transform="matrix(-1,0,0,1,-496.519012,0)" style="stroke:#0000ff;stroke-width:0.05mm;fill:none" d="M58,5L58,27"/>
    <path transform="matrix(-1,0,0,1,-475.019012,0)" style="stroke:#0000ff;stroke-width:0.05mm;fill:none" d="M59.961185,32L60,20"/>
    <path transform="matrix(0,0,0,0,-565.005798,0)" style="stroke:#0000ff;stroke-width:0.05mm;fill:none" d="M59.986767,0L60,35"/>
    <path transform="matrix(-1,0,0,1,-490.519012,0)" style="stroke:#0000ff;stroke-width:0.05mm;fill:none" d="M58,5L58,27"/>
    <circle transform="matrix(-0,1,1,0,-132.950134,45.049889)" style="stroke:#ff0000;stroke-width:0.05mm;fill:none" r="1.6" cx="0" cy="0"/>
    <circle transform="matrix(-0,1,1,0,-184.530136,113.589882)" style="stroke:#ff0000;stroke-width:0.05mm;fill:none" r="1.6" cx="0" cy="0"/>
    <circle transform="matrix(-0,1,1,0,-172.950134,91.999886)" style="stroke:#ff0000;stroke-width:0.05mm;fill:none" r="1.6" cx="0" cy="0"/>
    <circle transform="matrix(-0,1,1,0,-198.500137,78.029884)" style="stroke:#ff0000;stroke-width:0.05mm;fill:none" r="6" cx="0" cy="0"/>
    <circle transform="matrix(-0,1,1,0,-184.530136,70.409889)" style="stroke:#ff0000;stroke-width:0.05mm;fill:none" r="1.6" cx="0" cy="0"/>
    <circle transform="matrix(-0,1,1,0,-14.050133,91.999893)" style="stroke:#ff0000;stroke-width:0.05mm;fill:none" r="1.6" cx="0" cy="0"/>
    <circle transform="matrix(-0,1,1,0,-54.05014,138.94989)" style="stroke:#ff0000;stroke-width:0.05mm;fill:none" r="1.6" cx="0" cy="0"/>
    <circle transform="matrix(-0,1,1,0,-54.050133,45.049889)" style="stroke:#ff0000;stroke-width:0.05mm;fill:none" r="1.6" cx="0" cy="0"/>
    <circle transform="matrix(-0,1,1,0,-132.950134,138.94989)" style="stroke:#ff0000;stroke-width:0.05mm;fill:none" r="1.6" cx="0" cy="0"/>
    <path transform="matrix(-0,1,1,0,-162.442123,-297.666077)" style="stroke:#000000;stroke-width:0.05mm;fill:none" d="M441.066101,-41.057858C441.066101,-51.496037,432.604309,-59.957859,422.166107,-59.957863L417.166107,-59.957863L417.166107,-63.557861L412.166107,-63.557861L412.166107,-59.957863L407.166107,-59.957863L407.166107,-63.557861L402.166107,-63.557861L402.166107,-59.957863L397.166107,-59.957863L397.166107,-63.557861L392.166107,-63.557861L392.166107,-59.957863L387.166107,-59.957863L387.166107,-63.557861L382.166107,-63.557861L382.166107,-59.957863L377.166107,-59.957863L377.166107,-63.557861L372.166107,-63.557861L372.166107,-59.957863L367.166107,-59.957863L367.166107,-63.557861L362.166107,-63.557861L362.166107,-59.957863L357.166107,-59.957863C346.727936,-59.957863,338.266113,-51.496044,338.266113,-41.057861L338.266113,-36.057861L334.666107,-36.057861L334.666107,-31.057861L338.266113,-31.057861L338.266113,-26.057861L334.666107,-26.057861L334.666107,-21.057861L338.266113,-21.057861L338.266113,-16.057861L334.666107,-16.057861L334.666107,-11.057862L338.266113,-11.057862L338.266113,-6.057862L334.666107,-6.057862L334.666107,-1.057862L338.266113,-1.057862L338.266113,3.942138L334.666107,3.942138L334.666107,8.942138L338.266113,8.942138L338.266113,13.942138L334.666107,13.942138L334.666107,18.942139L338.266113,18.942139L338.266113,23.942139L334.666107,23.942139L334.666107,28.942139L338.266113,28.942139L338.266113,33.942139L334.666107,33.942139L334.666107,38.942139L338.266113,38.942139L338.266113,43.942139L334.666107,43.942139L334.666107,48.942139L338.266113,48.942139L338.266113,53.942139L334.666107,53.942139L334.666107,58.942139L338.266113,58.942139L338.266113,63.942139L334.666107,63.942139L334.666107,68.942139L338.266113,68.942139L338.266113,73.942139L334.666107,73.942139L334.666107,78.942139L338.266113,78.942139L338.266113,83.942139L334.666107,83.942139L334.666107,88.942139L338.266113,88.942139L338.266113,93.942139L334.666107,93.942139L334.666107,98.942139L338.266113,98.942139L338.266113,103.942139L334.666107,103.942139L334.666107,108.942139L338.266113,108.942139L338.266113,113.942139L334.666107,113.942139L334.666107,118.942139L338.266113,118.942139L338.266113,123.942139L334.666107,123.942139L334.666107,128.942139L338.266113,128.942139L338.266113,133.942139C338.266113,144.380325,346.727936,152.842133,357.166107,152.842133L362.166107,152.842133L362.166107,156.442139L367.166107,156.442139L367.166107,152.842133L372.166107,152.842133L372.166107,156.442139L377.166107,156.442139L377.166107,152.842133L382.166107,152.842133L382.166107,156.442139L387.166107,156.442139L387.166107,152.842133L392.166107,152.842133L392.166107,156.442139L397.166107,156.442139L397.166107,152.842133L402.166107,152.842133L402.166107,156.442139L407.166107,156.442139L407.166107,152.842133L412.166107,152.842133L412.166107,156.442139L417.166107,156.442139L417.166107,152.842133L422.166107,152.842133C432.604279,152.842133,441.066101,144.380325,441.066101,133.942139L441.066101,128.942139L444.666107,128.942139L444.666107,123.942139L441.066101,123.942139L441.066101,118.942139L444.666107,118.942139L444.666107,113.942139L441.066101,113.942139L441.066101,108.942139L444.666107,108.942139L444.666107,103.942139L441.066101,103.942139L441.066101,98.942139L444.666107,98.942139L444.666107,93.942139L441.066101,93.942139L441.066101,88.942139L444.666107,88.942139L444.666107,83.942139L441.066101,83.942139L441.066101,78.942139L444.666107,78.942139L444.666107,73.942139L441.066101,73.942139L441.066101,68.942139L444.666107,68.942139L444.666107,63.942139L441.066101,63.942139L441.066101,58.942139L444.666107,58.942139L444.666107,53.942139L441.066101,53.942139L441.066101,48.942139L444.666107,48.942139L444.666107,43.942139L441.066101,43.942139L441.066101,38.942139L444.666107,38.942139L444.666107,33.942139L441.066101,33.942139L441.066101,28.942139L444.666107,28.942139L444.666107,23.942139L441.066101,23.942139L441.066101,18.942139L444.666107,18.942139L444.666107,13.942138L441.066101,13.942138L441.066101,8.942138L444.666107,8.942138L444.666107,3.942138L441.066101,3.942138L441.066101,-1.057862L444.666107,-1.057862L444.666107,-6.057862L441.066101,-6.057862L441.066101,-11.057862L444.666107,-11.057862L444.666107,-16.057861L441.066101,-16.057861L441.066101,-21.057861L444.666107,-21.057861L444.666107,-26.057861L441.066101,-26.057861L441.066101,-31.057861L444.666107,-31.057861L444.666107,-36.057861L441.066101,-36.057861L441.066101,-41.057861"/>
    <circle transform="matrix(-0,1,1,0,-198.500137,105.969879)" style="stroke:#ff0000;stroke-width:0.05mm;fill:none" r="6" cx="0" cy="0"/>
    <circle transform="matrix(-0,1,1,0,-212.470139,70.409889)" style="stroke:#ff0000;stroke-width:0.05mm;fill:none" r="1.6" cx="0" cy="0"/>
    <path transform="matrix(-0,1,1,0,-162.442123,-297.666077)" style="stroke:#0000ff;stroke-width:0.05mm;fill:none" d="M347.166107,133.942139L347.166107,3.942137C347.166107,-1.580711,351.64325,-6.057863,357.166107,-6.057862L422.166107,-6.057862C427.688965,-6.05786,432.166107,-1.580706,432.166107,3.942138L432.166107,133.942139C432.166107,139.464981,427.688965,143.942139,422.166107,143.942139L357.166107,143.942139C351.64325,143.942139,347.166107,139.464981,347.166107,133.942139z"/>
    <circle transform="matrix(-0,1,1,0,-212.470139,91.999886)" style="stroke:#ff0000;stroke-width:0.05mm;fill:none" r="6" cx="0" cy="0"/>
    <circle transform="matrix(-0,1,1,0,-212.470139,113.589882)" style="stroke:#ff0000;stroke-width:0.05mm;fill:none" r="1.6" cx="0" cy="0"/>
    <circle transform="matrix(-0,1,1,0,-184.530136,91.999886)" style="stroke:#ff0000;stroke-width:0.05mm;fill:none" r="6" cx="0" cy="0"/>
</svg>
